# xmcd
#
# Track frame offsets: 
#        150
#        26308
#        58510
#        89293
#        120943
#        148825
#        181925
#        218945
#        241158
#        272543
#
# Disc length: 3993 seconds
#
# Revision: 4
# Processed by: cddbd v1.5.2PL0 Copyright (c) Steve Scherf et al.
# Submitted via: ExactAudioCopy v0.99pb5
#
DISCID=800f970a
DTITLE=Horace Silver - Pencil Packin' Papa
DYEAR=1994
DGENRE=Jazz
TTITLE0=Pencil Packin' Papa
TTITLE1=I Got The Dancin' Blues
TTITLE2=Soul Mates
TTITLE3=I Need My Baby
TTITLE4=My Mother's Waltz
TTITLE5=Red Beans And Rice
TTITLE6=Blues For Brother Blue
TTITLE7=Let It All Hang Out
TTITLE8=Señor Blues
TTITLE9=Viva Amour
EXTD=Record Label:\tColumbia/Sony Music\nCatalog Number:\tCK 64210\nRe
EXTD=cording Dates:\tJanuary 10-11, 1994\nOriginal Release:\t1994\nCD 
EXTD=Reissue:\tNA\n\nPersonnel:\nOscar Brashear:\tTrumpet and Flugelhorn
EXTD=\nRon Stout:\tTrumpet and Flugelhorn\nJeff Bernell:\tTrumpet and Flug
EXTD=elhorn\nSuzette Moriarty:\tFrench Horn\nGeorge Bohannon:\tTrombon
EXTD=e\nMaurice Spears:\tBass Trombone\nHorace Silver:\tPiano\nBob Mai
EXTD=ze:\tBass\nCarl Burnette:\tDrums\n\nGuest Soloists:\nO.C. Smith:\t
EXTD=Vocals\nRed Holloway:\tTenor Saxophone\nEddie Harris:\tTenor Saxo
EXTD=phone\nJames Moody:\tTenor Saxophone\nRickey Woodard:\tTenor Saxo
EXTD=phone
EXTT0=pencil packin' papa
EXTT1=
EXTT2=
EXTT3=
EXTT4=
EXTT5=
EXTT6=
EXTT7=
EXTT8=
EXTT9=
PLAYORDER=
